Coordinates
version=1
nRows=16
nColumns=42
inDegrees=yes

Units are S.I. units (second, meters, Newtons, ...)
If the header above contains a line with 'inDegrees', this indicates whether rotational values are in degrees (yes) or radians (no).

endheader
time	pelvis_tilt	pelvis_list	pelvis_rotation	pelvis_tx	pelvis_ty	pelvis_tz	hip_flexion_r	hip_adduction_r	hip_rotation_r	knee_angle_r	knee_adduction_r	knee_angle_r_beta	ankle_angle_r	subtalar_angle_r	mtp_angle_r	hip_flexion_l	hip_adduction_l	hip_rotation_l	knee_angle_l	knee_adduction_l	knee_angle_l_beta	ankle_angle_l	subtalar_angle_l	mtp_angle_l	lumbar_extension	lumbar_bending	lumbar_rotation	arm_flex_r	arm_add_r	arm_rot_r	elbow_flex_r	pro_sup_r	wrist_flex_r	wrist_dev_r	arm_flex_l	arm_add_l	arm_rot_l	elbow_flex_l	pro_sup_l	wrist_flex_l	wrist_dev_l
      1.75000000	      4.36957301	      0.03692204	     12.76812891	     -0.64852295	      0.87603492	     -0.18357227	     16.71534619	     -6.29255233	    -23.14558450	     29.13474692	     -3.03093213	      0.50849726	     12.35510920	     23.30861718	     -7.66933676	      1.55442706	      0.08699519	     -0.21313080	     35.11726376	     -4.34474211	      0.61291188	     24.07017907	     20.32850338	     -7.66933676	    -27.75356272	     11.73965948	     -4.59368487	     -0.28856647	    -14.27243573	    -17.37308545	     50.72177906	     90.00000001	      0.00000000	      0.00000000	     18.95371558	     -8.86476386	     32.93868987	     49.39693526	     90.00000001	      0.00000000	      0.00000000
      1.76000000	      4.34336487	      0.12643072	     12.71201081	     -0.64447063	      0.87695979	     -0.18163181	     16.32614446	     -6.19030954	    -23.32241378	     28.89084519	     -3.00975136	      0.50424037	     12.57017168	     23.46324785	     -7.66857272	      1.31356968	     -0.08623073	     -0.30394227	     35.10309657	     -4.21048710	      0.61266461	     23.59352025	     20.29046760	     -7.66857272	    -27.67522775	     11.63030507	     -4.62969720	     -0.03354247	    -14.26909815	    -17.19271154	     50.95050774	     90.00000001	      0.00000000	      0.00000000	     18.70638064	     -8.93113990	     33.09073705	     49.34792692	     90.00000001	      0.00000000	      0.00000000
      1.77000000	      4.97146348	      0.27465277	     12.71330824	     -0.63982207	      0.87906123	     -0.17977875	     14.92988628	     -5.97660554	    -24.26582336	     28.12778761	     -3.23169346	      0.49092251	     12.89358849	     25.49050575	     -7.66183143	      0.13520754	     -0.36188128	     -0.18576109	     34.66808673	     -3.99883324	      0.60507226	     22.55582668	     19.89945346	     -7.66183143	    -28.30291770	     11.61456032	     -4.58374913	      0.00604944	    -14.48738228	    -16.24986775	     51.39246647	     90.00000001	      0.00000000	      0.00000000	     18.59566529	     -9.15829125	     33.90809782	     49.56285648	     90.00000001	      0.00000000	      0.00000000
      1.78000000	      4.87636145	      0.39616350	     12.66162237	     -0.63592554	      0.87981960	     -0.17781538	     14.65098529	     -5.93209732	    -24.49119235	     27.94576090	     -3.26183246	      0.48774554	     13.12427550	     25.71151951	     -7.66044726	      0.09642688	     -0.45344206	     -0.22018475	     34.90797482	     -3.90461225	      0.60925910	     22.00981682	     19.83025122	     -7.66044726	    -28.16544760	     11.45385567	     -4.68122048	      0.30046608	    -14.46530560	    -16.16879660	     51.58035452	     90.00000001	      0.00000000	      0.00000000	     18.37414264	     -9.22968614	     34.03042199	     49.49796904	     90.00000001	      0.00000000	      0.00000000
      1.79000000	      4.89944376	      0.46269793	     12.66912097	     -0.63191927	      0.88079575	     -0.17600206	     14.16218506	     -5.82101205	    -24.95120293	     27.61767623	     -3.31671235	      0.48201938	     13.42772078	     26.38988683	     -7.65834053	     -0.03242331	     -0.62657457	     -0.20939953	     35.16432576	     -3.81570931	      0.61373326	     21.17438582	     19.59938687	     -7.65834053	    -28.12916629	     11.41458333	     -4.74299853	      0.53287586	    -14.48239170	    -15.99489172	     51.76378130	     90.00000001	      0.00000000	      0.00000000	     18.17095406	     -9.28462414	     34.34021936	     49.52370287	     90.00000001	      0.00000000	      0.00000000
      1.80000000	      5.01931298	      0.61587015	     12.65624422	     -0.62771931	      0.88189537	     -0.17419651	     13.58593982	     -5.80995666	    -25.90241034	     27.32203254	     -3.59304139	      0.47685943	     13.58072534	     28.18835928	     -7.65202262	     -0.37908140	     -0.72944747	      0.04322476	     35.28472924	     -3.55606000	      0.61583470	     20.57140400	     18.95676882	     -7.65202262	    -28.18677448	     11.29162730	     -4.81315102	      0.69467154	    -14.52936263	    -15.64653448	     52.01051879	     90.00000001	      0.00000000	      0.00000000	     18.01555356	     -9.45512602	     35.00824843	     49.62500906	     90.00000001	      0.00000000	      0.00000000
      1.81000000	      4.95430457	      0.80136301	     12.64499784	     -0.62392265	      0.88268180	     -0.17227490	     13.24744183	     -5.86691295	    -26.07621428	     27.15060708	     -3.51807229	      0.47386749	     13.74501816	     28.34212985	     -7.65077171	     -0.29828588	     -0.80066790	     -0.07891255	     35.74954725	     -3.42638991	      0.62394731	     20.00182876	     18.85468451	     -7.65077171	    -28.10060065	     11.06469999	     -4.93633962	      0.93028089	    -14.43508516	    -15.57098346	     52.16384523	     90.00000001	      0.00000000	      0.00000000	     17.86872096	     -9.46332378	     35.12162911	     49.58280765	     90.00000001	      0.00000000	      0.00000000
      1.82000000	      4.86066232	      0.90213250	     12.44429713	     -0.61981447	      0.88337526	     -0.17049860	     13.02657044	     -5.84381182	    -26.19415890	     27.09122848	     -3.48107605	      0.47283114	     13.79302463	     28.38877987	     -7.65054845	     -0.35138414	     -0.77602876	     -0.01307742	     35.97731675	     -3.42359903	      0.62792263	     19.80864452	     18.84293291	     -7.65054845	    -27.92058550	     10.94435294	     -4.85666901	      1.16719312	    -14.49933928	    -15.56112234	     52.27055723	     90.00000001	      0.00000000	      0.00000000	     17.55390169	     -9.43229434	     35.22257208	     49.52643150	     90.00000001	      0.00000000	      0.00000000
      1.83000000	      5.01785451	      0.88275315	     12.64796258	     -0.61586884	      0.88434484	     -0.16882424	     12.30618870	     -5.61315017	    -27.02804354	     26.54732430	     -3.59982382	      0.46333822	     14.09969615	     29.93724397	     -7.64434101	     -0.25352522	     -1.16395830	      0.14334837	     36.86238289	     -3.14897596	      0.64336995	     18.31157366	     17.85440464	     -7.64434101	    -27.96880540	     11.06259119	     -5.05739656	      1.33640789	    -14.56207649	    -15.20218883	     52.51175266	     90.00000001	      0.00000000	      0.00000000	     17.53279335	     -9.67080015	     36.12387718	     49.66813236	     90.00000001	      0.00000000	      0.00000000
      1.84000000	      5.05330391	      1.00429681	     12.66371728	     -0.61198161	      0.88513426	     -0.16716286	     11.82072342	     -5.60198754	    -27.13379833	     26.32966573	     -3.43230642	      0.45953936	     14.30364758	     30.14833236	     -7.64276995	     -0.12856275	     -1.23870862	      0.09479979	     37.58472895	     -3.14432619	      0.65597727	     17.46514868	     17.70586569	     -7.64276995	    -27.93303941	     10.97367303	     -5.16734655	      1.56163094	    -14.55030364	    -15.15498687	     52.64097504	     90.00000001	      0.00000000	      0.00000000	     17.38981557	     -9.67211081	     36.30533576	     49.64757852	     90.00000001	      0.00000000	      0.00000000
      1.85000000	      5.12882193	      1.10914500	     12.64774686	     -0.60806924	      0.88590907	     -0.16538666	     11.31124673	     -5.52296754	    -27.20274437	     26.09495425	     -3.30542472	      0.45544287	     14.45996749	     30.31835743	     -7.64157849	      0.00038373	     -1.36974856	      0.07469311	     38.39717793	     -3.06646354	      0.67015718	     16.66618738	     17.52544397	     -7.64157849	    -27.94711808	     10.86983684	     -5.22568952	      1.77647016	    -14.55611026	    -15.09170100	     52.75643139	     90.00000001	      0.00000000	      0.00000000	     17.25229709	     -9.67891419	     36.51818407	     49.63357085	     90.00000001	      0.00000000	      0.00000000
      1.86000000	      5.22976616	      1.09425850	     12.72452329	     -0.60417940	      0.88665858	     -0.16380844	     10.70502941	     -5.32421646	    -27.24196765	     25.72465788	     -3.07693161	      0.44897998	     14.66279260	     30.50272466	     -7.64003901	      0.24100525	     -1.63198623	      0.06649600	     39.37003574	     -3.03308550	      0.68713675	     15.53269106	     17.19445110	     -7.64003901	    -27.93262552	     10.96118543	     -5.30651925	      1.97750383	    -14.57633509	    -15.00247101	     52.87957542	     90.00000001	      0.00000000	      0.00000000	     17.16742684	     -9.70539802	     36.83788167	     49.66553169	     90.00000001	      0.00000000	      0.00000000
      1.87000000	      5.36141328	      1.04372338	     12.80549021	     -0.60030795	      0.88737227	     -0.16215081	     10.08670945	     -4.97068277	    -27.17986142	     25.27492352	     -3.01073233	      0.44113063	     14.75768757	     30.53476364	     -7.63729024	      0.50056210	     -1.95142624	      0.24801045	     40.42871803	     -2.88147921	      0.70561424	     14.41405752	     16.64359702	     -7.63729024	    -27.95147885	     11.07198902	     -5.32090658	      2.13074884	    -14.63248397	    -14.88162876	     52.98772614	     90.00000001	      0.00000000	      0.00000000	     17.10952183	     -9.72919179	     37.30023235	     49.72271831	     90.00000001	      0.00000000	      0.00000000
      1.88000000	      5.53140578	      1.05053821	     12.86818470	     -0.59641446	      0.88806139	     -0.16064179	      9.40369837	     -4.79865196	    -27.02186632	     24.94981683	     -2.66208771	      0.43545645	     14.91957880	     30.48575718	     -7.63553990	      0.74548085	     -2.18908786	      0.34749124	     41.55068593	     -2.81091291	      0.72519628	     13.30673197	     16.33227552	     -7.63553990	    -28.00800205	     11.13583836	     -5.37694928	      2.31178343	    -14.65245112	    -14.82755520	     53.07521192	     90.00000001	      0.00000000	      0.00000000	     17.04944127	     -9.69841929	     37.56848123	     49.74300906	     90.00000001	      0.00000000	      0.00000000
      1.89000000	      5.71297468	      0.92150219	     12.92011127	     -0.59264126	      0.88871673	     -0.15895669	      8.72081766	     -4.32093298	    -26.60953351	     24.43086351	     -2.43785816	      0.42639901	     14.89122256	     29.89008929	     -7.63043894	      1.07624088	     -2.61217822	      0.75070425	     42.80744052	     -2.49091461	      0.74713078	     12.10489555	     15.47580186	     -7.63043894	    -28.08003851	     11.30763460	     -5.30318539	      2.47525327	    -14.71457906	    -14.73704689	     53.14969104	     90.00000001	      0.00000000	      0.00000000	     17.05986382	     -9.70090369	     38.02837823	     49.79555731	     90.00000001	      0.00000000	      0.00000000
      1.90000000	      5.92127390	      1.01101283	     12.94739485	     -0.58879125	      0.88933241	     -0.15747656	      8.02373235	     -4.25220578	    -26.38588750	     24.20362123	     -2.07159588	      0.42243288	     15.09512067	     29.82637096	     -7.62931145	      1.31830313	     -2.73352400	      0.86824530	     43.97605671	     -2.46171519	      0.76752698	     11.03630134	     15.38802880	     -7.62931145	    -28.20036301	     11.26690739	     -5.30613755	      2.64737762	    -14.73582362	    -14.73528534	     53.19694509	     90.00000001	      0.00000000	      0.00000000	     16.98241174	     -9.63536993	     38.12871108	     49.80436308	     90.00000001	      0.00000000	      0.00000000
